<svg width="28" height="34" viewBox="0 0 28 34" fill="none" xmlns="http://www.w3.org/2000/svg">
  <path
    d="M7.50709 1.38546C7.50709 1.26678 7.40686 1.16637 7.2793 1.19376C5.51161 1.56803 3.76215 2.07923 2.05825 2.75475C1.11063 3.12902 0.491028 4.03276 0.491028 5.05517V12.7141C0.491028 12.8875 0.700599 12.9606 0.80994 12.8328L7.26107 5.18297C7.26107 5.18297 7.29752 5.11907 7.30663 5.07342L7.5162 1.38546H7.50709Z"
    fill="#ED273D"/>
  <path
    d="M27.6531 6.45187C27.7351 6.42448 27.7806 6.36058 27.7806 6.27843V4.11494C27.7806 3.64938 27.4617 3.25685 27.0244 3.14731C26.9332 3.06515 26.833 3.00125 26.7146 2.9556L26.2134 2.7639C23.3432 1.62282 20.3545 0.919919 17.3477 0.627803C17.1745 0.609546 17.0743 0.837762 17.211 0.956434L24.4457 7.31909C24.4913 7.36473 24.5551 7.37386 24.6188 7.3556L27.6622 6.461L27.6531 6.45187Z"
    fill="#ED273D"/>
  <path
    d="M0.5 21.9796V23.5954C0.5 24.3622 0.882694 25.0743 1.52052 25.5033L8.26323 29.9855C8.33612 30.0402 8.43635 30.022 8.50013 29.9581L14.0219 23.7962C14.1221 23.6867 14.0583 23.5133 13.9125 23.495L0.709571 21.7971C0.600229 21.7788 0.5 21.8701 0.5 21.9796Z"
    fill="#ED273D"/>
  <path
    d="M10.7872 31.4187C10.7143 31.5008 10.7326 31.6286 10.8237 31.6925L13.0287 33.1622C13.3659 33.3904 13.7577 33.5 14.1404 33.5C14.5231 33.5 14.9149 33.3904 15.252 33.1622L26.8057 25.4759C27.2431 25.1838 27.5529 24.7548 27.6896 24.2618L17.6119 23.8967C17.5573 23.8967 17.5026 23.9149 17.4662 23.9606L10.769 31.4187H10.7872Z"
    fill="#ED273D"/>
  <path
    d="M19.4343 21.2768L27.5984 21.5689C27.6987 21.5689 27.7898 21.4867 27.7898 21.3863V9.45521C27.7898 9.33654 27.6713 9.24525 27.5529 9.28177L25.1747 9.98467C25.1291 10.0029 25.0836 10.0303 25.0654 10.076L19.2794 21.0212C19.2156 21.1399 19.2976 21.2859 19.4343 21.2859V21.2768Z"
    fill="#ED273D"/>
  <path
    d="M22.3956 9.09004L12.6916 0.545643C12.6916 0.545643 12.6096 0.5 12.5549 0.5C11.826 0.536515 11.1061 0.600415 10.3863 0.682573C10.2952 0.691701 10.2314 0.76473 10.2223 0.856017L9.96716 5.32905C9.96716 5.32905 9.96716 5.39295 9.98539 5.42033L16.8374 19.2685C16.9012 19.4054 17.0926 19.4054 17.1655 19.2685L22.4412 9.3C22.4776 9.22697 22.4594 9.13568 22.4047 9.08091L22.3956 9.09004Z"
    fill="#ED273D"/>
  <path
    d="M0.5 17.4336V18.9033C0.5 18.9946 0.572894 19.0767 0.664012 19.0859L14.3134 20.8386C14.4592 20.8568 14.5686 20.7108 14.5048 20.5738L8.44546 8.33235C8.39079 8.21367 8.22678 8.19542 8.14478 8.29583L0.545559 17.3149C0.545559 17.3149 0.5 17.3879 0.5 17.4336Z"
    fill="#ED273D"/>
</svg>
