<svg width="105" height="29" viewBox="0 0 105 29" fill="none" xmlns="http://www.w3.org/2000/svg">
<path d="M34.8709 17.3951L38.3264 11.2885H39.6958L43.1974 17.3951H41.6035L40.8689 16.0599H36.9986L36.2879 17.3951H34.8709ZM37.6038 14.9566H40.2787L38.9613 12.4721L37.6038 14.9566Z" fill="white"/>
<path d="M46.8084 17.3952V14.6623L43.6369 11.2886H45.5312L47.6277 13.6349L49.7301 11.2886H51.3999L48.2403 14.6281V17.3952H46.8084Z" fill="white"/>
<path d="M53.6346 17.3952V11.2886H54.6055L59.5389 15.4414V11.2886H60.8162V17.3952H59.8452L54.9103 13.2408C54.9103 13.4163 54.9118 13.9917 54.9118 14.0973V17.3966H53.6346V17.3952Z" fill="white"/>
<path d="M64.5221 17.3952V11.2886H65.9435V17.3952H64.5221Z" fill="white"/>
<path d="M72.496 12.3799V17.3952H71.0745V12.3799H68.2718V11.2886H75.3092V12.3799H72.496Z" fill="white"/>
<path d="M77.6409 17.3952V11.2886H83.8917V12.3279H79.0623V13.6914H81.8815V14.7307H79.0623V16.2443H83.9497V17.3937H77.6409V17.3952Z" fill="white"/>
<path d="M92.2894 12.3799H88.4593V16.2443H92.2894V15.2258L93.7109 15.2273V15.9499C93.7109 16.509 93.6053 16.8881 93.3957 17.0904C93.186 17.2926 92.7861 17.3937 92.1973 17.3937H88.5514C87.9582 17.3937 87.5582 17.2926 87.3501 17.0904C87.1419 16.8881 87.0378 16.5075 87.0378 15.9499V12.7323C87.0378 12.1777 87.1419 11.7986 87.3501 11.5949C87.5582 11.3912 87.9582 11.2886 88.5514 11.2886H92.1973C92.7861 11.2886 93.186 11.3912 93.3957 11.5949C93.6053 11.7986 93.7109 12.1777 93.7109 12.7323V13.3107H92.2894V12.3799Z" fill="white"/>
<path d="M97.2299 17.3952V11.2886H98.6513V13.6572H103.088V11.2886H104.521V17.3952H103.088V14.7664H98.6513V17.3952H97.2299Z" fill="white"/>
<path d="M60.7083 20.8906H58.6534V22.6808H60.7083V22.0518H59.6332V21.5701H61.3491V22.544C61.3491 22.8027 61.3015 22.9781 61.2049 23.0718C61.1082 23.1655 60.9224 23.2116 60.6488 23.2116H58.698C58.4229 23.2116 58.2371 23.164 58.1419 23.0718C58.0453 22.9781 57.9977 22.8027 57.9977 22.544V21.0526C57.9977 20.7954 58.0453 20.62 58.1419 20.5263C58.2386 20.4311 58.4244 20.385 58.698 20.385H60.6488C60.9194 20.385 61.1038 20.4311 61.2019 20.5248C61.3 20.617 61.3491 20.785 61.3491 21.0274V21.0913L60.7097 21.2058V20.8906H60.7083Z" fill="white"/>
<path d="M63.1799 23.2132V20.3852H65.599C65.8236 20.3852 65.9856 20.4283 66.0867 20.5146C66.1878 20.6008 66.2384 20.7406 66.2384 20.9339V21.597C66.2384 21.7873 66.1878 21.9271 66.0867 22.0148C65.9856 22.1025 65.8236 22.1457 65.599 22.1457H65.2288L66.5343 23.2132H65.5901L64.4497 22.1457H63.8267V23.2132H63.1799ZM65.3061 20.8744H63.8267V21.6609H65.3061C65.4206 21.6609 65.4994 21.6446 65.5411 21.6119C65.5827 21.5792 65.6035 21.5197 65.6035 21.4364V21.0959C65.6035 21.0142 65.5827 20.9562 65.5411 20.9235C65.4994 20.8907 65.4206 20.8744 65.3061 20.8744Z" fill="white"/>
<path d="M67.953 21.0546C67.953 20.7974 68.0006 20.6219 68.0972 20.5282C68.1938 20.4331 68.3797 20.387 68.6533 20.387H70.7349C71.01 20.387 71.1958 20.4346 71.291 20.5282C71.3876 20.6234 71.4352 20.7988 71.4352 21.0546V22.5459C71.4352 22.8046 71.3876 22.9801 71.291 23.0738C71.1944 23.1674 71.0085 23.2135 70.7349 23.2135H68.6533C68.3782 23.2135 68.1924 23.1659 68.0972 23.0738C68.0006 22.9801 67.953 22.8046 67.953 22.5459V21.0546ZM68.6102 22.6812H70.781V20.891H68.6102V22.6812Z" fill="white"/>
<path d="M73.9197 20.3852V22.6809H75.7946V20.3852H76.4503V22.5441C76.4503 22.8029 76.4028 22.9783 76.3061 23.072C76.2095 23.1657 76.0236 23.2118 75.75 23.2118H73.9628C73.6892 23.2118 73.5048 23.1642 73.4082 23.072C73.3101 22.9783 73.2625 22.8029 73.2625 22.5441V20.3852H73.9197Z" fill="white"/>
<path d="M78.3367 23.2132V20.3852H80.7558C80.9804 20.3852 81.1424 20.4283 81.2435 20.5146C81.3446 20.6008 81.3952 20.7406 81.3952 20.9339V21.5658C81.3952 21.7561 81.3446 21.8959 81.2435 21.9821C81.1424 22.0683 80.9804 22.1115 80.7558 22.1115H78.9835V23.2132H78.3367ZM80.4629 20.8744H78.9835V21.6238H80.4629C80.5774 21.6238 80.6562 21.6074 80.6979 21.5747C80.7395 21.542 80.7603 21.4825 80.7603 21.3993V21.0974C80.7603 21.0156 80.7395 20.9577 80.6979 20.9249C80.6562 20.8907 80.5789 20.8744 80.4629 20.8744Z" fill="white"/>
<path d="M11.2403 12.5314V16.4672L14.6497 18.4358L18.0591 16.4672V12.5314L14.6497 10.5628L11.2403 12.5314Z" fill="white"/>
<path d="M16.7428 7.78217V5.36006L14.6449 4.14825L12.5469 5.36006V7.78217L14.6449 8.99397L16.7428 7.78217Z" fill="white"/>
<path d="M17.8994 8.29232L18.5269 10.6327L20.8672 11.2586L22.5801 9.54575L21.9526 7.20541L19.6138 6.57944L17.8994 8.29232Z" fill="white"/>
<path d="M21.3251 12.4377L20.1133 14.5356L21.3251 16.6336H23.7472L24.959 14.5356L23.7472 12.4377H21.3251Z" fill="white"/>
<path d="M18.4747 18.4194L17.8488 20.7583L19.5616 22.4726L21.902 21.8452L22.528 19.5048L20.8151 17.792L18.4747 18.4194Z" fill="white"/>
<path d="M12.4739 21.2162V23.6398L14.5719 24.8501L16.6698 23.6398V21.2162L14.5719 20.0058L12.4739 21.2162Z" fill="white"/>
<path d="M11.3157 20.7076L10.6882 18.3673L8.34938 17.7398L6.63501 19.4527L7.26247 21.793L9.60281 22.4205L11.3157 20.7076Z" fill="white"/>
<path d="M5.4679 12.3647L4.2561 14.4627L5.4679 16.5606H7.89151L9.10182 14.4627L7.89151 12.3647H5.4679Z" fill="white"/>
<path d="M10.74 10.5808L11.3674 8.24044L9.65455 6.52756L7.31421 7.15353L6.68675 9.49387L8.39963 11.2067L10.74 10.5808Z" fill="white"/>
<path d="M15.6854 1.79466V0.597723L14.6491 0L13.6127 0.597723V1.79466L14.6491 2.39238L15.6854 1.79466Z" fill="white"/>
<path d="M24.3531 6.27477L25.1991 5.42874L24.8884 4.27344L23.7331 3.96417L22.8871 4.8102L23.1978 5.9655L24.3531 6.27477Z" fill="white"/>
<path d="M28.5098 13.4993L27.3129 13.5008L26.7152 14.5356L27.3144 15.572H28.5098L29.1076 14.5356L28.5098 13.4993Z" fill="white"/>
<path d="M23.1451 23.0853L22.8359 24.2406L23.6819 25.0867L24.8372 24.7759L25.1465 23.6206L24.3004 22.7746L23.1451 23.0853Z" fill="white"/>
<path d="M14.5746 26.6062L13.5397 27.2055V28.4024L14.5761 29.0001L15.6124 28.4009L15.6109 27.204L14.5746 26.6062Z" fill="white"/>
<path d="M4.86864 22.7299L4.02409 23.5774L4.33485 24.7327L5.49015 25.0405L6.33618 24.1945L6.02542 23.0392L4.86864 22.7299Z" fill="white"/>
<path d="M2.50011 14.4704L1.9009 13.4355L0.70545 13.437L0.107727 14.4734L0.706937 15.5082H1.90387L2.50011 14.4704Z" fill="white"/>
<path d="M6.06519 5.91906L6.37297 4.76375L5.52694 3.91772L4.37164 4.22997L4.06386 5.38527L4.90989 6.22981L6.06519 5.91906Z" fill="white"/>
<path d="M20.6523 4.41313L21.3868 2.65118L20.2285 1.13309L18.3328 1.37693L17.5982 3.14037L18.758 4.65846L20.6523 4.41313Z" fill="white"/>
<path d="M24.4997 10.4749L26.0133 11.6407L27.7797 10.9136L28.034 9.02078L26.5203 7.85507L24.7539 8.58067L24.4997 10.4749Z" fill="white"/>
<path d="M25.9677 17.4885L24.4496 18.6482L24.6949 20.5425L26.4568 21.277L27.9749 20.1187L27.7311 18.2245L25.9677 17.4885Z" fill="white"/>
<path d="M18.6322 24.3924L17.4664 25.9045L18.1935 27.6709L20.0863 27.9252L21.252 26.413L20.5264 24.6466L18.6322 24.3924Z" fill="white"/>
<path d="M8.56536 24.5855L7.82936 26.349L8.98912 27.8671L10.8834 27.6217L11.6194 25.8583L10.4596 24.3402L8.56536 24.5855Z" fill="white"/>
<path d="M4.71508 18.5251L3.20293 17.3579L1.43652 18.085L1.18227 19.9778L2.69442 21.145L4.46082 20.4179L4.71508 18.5251Z" fill="white"/>
<path d="M3.24985 11.51L4.76795 10.3503L4.52262 8.45601L2.75919 7.7215L1.24109 8.87977L1.48642 10.774L3.24985 11.51Z" fill="white"/>
<path d="M10.5827 4.60611L11.7499 3.09396L11.0228 1.32756L9.13 1.0733L7.9628 2.58694L8.68988 4.35334L10.5827 4.60611Z" fill="white"/>
</svg>
