<svg width="136" height="34" viewBox="0 0 136 34" fill="none" xmlns="http://www.w3.org/2000/svg">
<g clip-path="url(#clip0_110_615)">
<path d="M38.0952 11.6461H42.0497L42.0952 11.6917V16.1191L45.1203 11.6461H49.0748L49.1204 11.6917C47.298 14.3664 46.2046 16.0004 45.8402 16.6029V16.6303L49.5395 22.2627L49.5122 22.29H45.3481C45.2752 22.2444 44.7376 21.432 43.7262 19.8527C42.6875 18.3008 42.1499 17.4793 42.1043 17.3788H42.077V22.2444L42.0314 22.29H38.0769L38.0314 22.2444V11.7008L38.0769 11.6552L38.0952 11.6461Z" fill="#192D40"/>
<path d="M50.5145 11.6278H60.0636C60.8655 11.6278 61.5124 11.9564 62.0045 12.6046C62.2505 12.9515 62.378 13.4627 62.378 14.1291V16.1191C62.378 17.3058 61.804 18.1 60.665 18.5017V18.5291L62.9065 22.2353L62.861 22.2809H58.6969C58.5966 22.1714 57.8495 20.9573 56.4736 18.6477L56.4463 18.6203H54.551L54.5055 18.666V22.2353L54.4599 22.2809H50.5054L50.4598 22.2353V11.6735L50.5054 11.6278H50.5145ZM54.5328 14.266V15.9822H58.0955C58.5238 15.9822 58.7789 15.827 58.8791 15.5166V14.7315C58.8791 14.4942 58.6422 14.339 58.1593 14.266H54.5328Z" fill="#192D40"/>
<path d="M63.8815 11.6461H67.8087L67.8542 11.6917V22.2353L67.8087 22.2809H63.8815L63.8359 22.2353V11.6917L63.8815 11.6461Z" fill="#192D40"/>
<path d="M69.713 11.6278H79.2621C80.1733 11.6278 80.8658 12.0295 81.3396 12.8328C81.4763 13.1705 81.5492 13.4444 81.5492 13.6635V16.4203C81.5492 17.1689 81.1665 17.7805 80.392 18.2735C79.9546 18.5017 79.5173 18.6203 79.0708 18.6203H73.7495L73.7039 18.666V22.2353L73.6584 22.2809H69.7039L69.6583 22.2353V11.6735L69.7039 11.6278H69.713ZM73.7313 14.266V15.9822H77.294C77.7222 15.9822 77.9774 15.827 78.0776 15.5166V14.7315C78.0776 14.4942 77.8407 14.339 77.3578 14.266H73.7313Z" fill="#192D40"/>
<path d="M82.5606 11.6278H94.6792L94.7248 11.6735V13.8735L94.6792 13.9191H90.6518V22.2353L90.6063 22.2809H86.6518L86.6062 22.2353V13.9191H82.5606L82.515 13.8735V11.6735L82.5606 11.6278Z" fill="#192D40"/>
<path d="M98.7158 11.6278H104.447C105.34 11.6278 106.151 12.0112 106.871 12.7872C107.272 13.2984 107.472 13.7822 107.472 14.2203V19.6154C107.472 20.4369 106.998 21.1672 106.042 21.788C105.504 22.1166 104.839 22.2718 104.055 22.2718H99.1076C97.513 22.2718 96.4105 21.6054 95.8 20.2818C95.7089 19.9623 95.6633 19.6336 95.6633 19.305V14.5581C95.6633 13.1797 96.4287 12.2394 97.9504 11.7282C98.2328 11.6552 98.488 11.6096 98.7158 11.6096V11.6278ZM99.8092 14.9415V18.6751C99.8092 19.232 99.9823 19.5697 100.319 19.6975H102.771C103.117 19.6975 103.317 19.378 103.372 18.7481V14.9506C103.372 14.2751 103.144 13.9282 102.698 13.9282H100.474C100.028 13.9282 99.8001 14.266 99.8001 14.9506L99.8092 14.9415Z" fill="#192D40"/>
<path d="M108.475 11.6278H113.377C113.532 11.8286 114.06 12.7324 114.971 14.339L116.429 16.8403H116.456L119.482 11.6278H124.384L124.429 11.6735V22.2353L124.384 22.2809H120.456L120.411 22.2353V17.1141H120.384L117.377 22.2809H115.527C115.427 22.1805 114.689 20.9299 113.331 18.5291L112.475 17.1141V22.2353L112.429 22.2809H108.475L108.429 22.2353V11.6735L108.475 11.6278Z" fill="#192D40"/>
<path d="M125.441 11.6278H135.454L135.5 11.6735V13.8735L135.454 13.9191H129.441V15.3067H134.99L135.035 15.3523V17.8536L134.99 17.8992H129.441V19.6793H135.454L135.5 19.7249V22.2262L135.454 22.2718H125.441L125.395 22.2262V11.6644L125.441 11.6187V11.6278Z" fill="#192D40"/>
<path d="M7.50709 1.38546C7.50709 1.26678 7.40686 1.16637 7.2793 1.19376C5.51161 1.56803 3.76215 2.07923 2.05825 2.75475C1.11063 3.12902 0.491028 4.03276 0.491028 5.05517V12.7141C0.491028 12.8875 0.700599 12.9606 0.80994 12.8328L7.26107 5.18297C7.26107 5.18297 7.29752 5.11907 7.30663 5.07342L7.5162 1.38546H7.50709Z" fill="#ED273D"/>
<path d="M27.6531 6.45187C27.7351 6.42448 27.7806 6.36058 27.7806 6.27843V4.11494C27.7806 3.64938 27.4617 3.25685 27.0244 3.14731C26.9332 3.06515 26.833 3.00125 26.7146 2.9556L26.2134 2.7639C23.3432 1.62282 20.3545 0.919919 17.3477 0.627803C17.1745 0.609546 17.0743 0.837762 17.211 0.956434L24.4457 7.31909C24.4913 7.36473 24.5551 7.37386 24.6188 7.3556L27.6622 6.461L27.6531 6.45187Z" fill="#ED273D"/>
<path d="M0.5 21.9796V23.5954C0.5 24.3622 0.882694 25.0743 1.52052 25.5033L8.26323 29.9855C8.33612 30.0402 8.43635 30.022 8.50013 29.9581L14.0219 23.7962C14.1221 23.6867 14.0583 23.5133 13.9125 23.495L0.709571 21.7971C0.600229 21.7788 0.5 21.8701 0.5 21.9796Z" fill="#ED273D"/>
<path d="M10.7872 31.4187C10.7143 31.5008 10.7326 31.6286 10.8237 31.6925L13.0287 33.1622C13.3659 33.3904 13.7577 33.5 14.1404 33.5C14.5231 33.5 14.9149 33.3904 15.252 33.1622L26.8057 25.4759C27.2431 25.1838 27.5529 24.7548 27.6896 24.2618L17.6119 23.8967C17.5573 23.8967 17.5026 23.9149 17.4662 23.9606L10.769 31.4187H10.7872Z" fill="#ED273D"/>
<path d="M19.4343 21.2768L27.5984 21.5689C27.6987 21.5689 27.7898 21.4867 27.7898 21.3863V9.45521C27.7898 9.33654 27.6713 9.24525 27.5529 9.28177L25.1747 9.98467C25.1291 10.0029 25.0836 10.0303 25.0654 10.076L19.2794 21.0212C19.2156 21.1399 19.2976 21.2859 19.4343 21.2859V21.2768Z" fill="#ED273D"/>
<path d="M22.3956 9.09004L12.6916 0.545643C12.6916 0.545643 12.6096 0.5 12.5549 0.5C11.826 0.536515 11.1061 0.600415 10.3863 0.682573C10.2952 0.691701 10.2314 0.76473 10.2223 0.856017L9.96716 5.32905C9.96716 5.32905 9.96716 5.39295 9.98539 5.42033L16.8374 19.2685C16.9012 19.4054 17.0926 19.4054 17.1655 19.2685L22.4412 9.3C22.4776 9.22697 22.4594 9.13568 22.4047 9.08091L22.3956 9.09004Z" fill="#ED273D"/>
<path d="M0.5 17.4336V18.9033C0.5 18.9946 0.572894 19.0767 0.664012 19.0859L14.3134 20.8386C14.4592 20.8568 14.5686 20.7108 14.5048 20.5738L8.44546 8.33235C8.39079 8.21367 8.22678 8.19542 8.14478 8.29583L0.545559 17.3149C0.545559 17.3149 0.5 17.3879 0.5 17.4336Z" fill="#ED273D"/>
</g>
<defs>
<clipPath id="clip0_110_615">
<rect width="135" height="33" fill="white" transform="translate(0.5 0.5)"/>
</clipPath>
</defs>
</svg>
